<mxfile host="Electron" modified="2024-11-13T15:33:32.206Z" agent="Mozilla/5.0 (X11; Linux x86_64) AppleWebKit/537.36 (KHTML, like Gecko) draw.io/24.6.1 Chrome/124.0.6367.207 Electron/30.0.6 Safari/537.36" etag="b0jNc5UCXUh04I_yb-zQ" version="24.6.1" type="device">
  <diagram name="1 oldal" id="l0yea4yNTBdM-i7qa7ly">
    <mxGraphModel dx="474" dy="830" grid="1" gridSize="10" guides="1" tooltips="1" connect="1" arrows="1" fold="1" page="1" pageScale="1" pageWidth="827" pageHeight="1169" background="#D6FFEC" math="0" shadow="0">
      <root>
        <mxCell id="0" />
        <mxCell id="1" parent="0" />
        <mxCell id="XDxX8zZYFT2SKu-S6DxQ-1" value="&lt;b&gt;Ingatlan közvetítés&lt;/b&gt;" style="shape=umlFrame;whiteSpace=wrap;html=1;pointerEvents=0;recursiveResize=0;container=1;collapsible=0;width=160;fillColor=#9A75FF;fontColor=#FAFF66;gradientColor=default;labelBackgroundColor=none;labelBorderColor=#BFCEFF;textShadow=0;swimlaneFillColor=#FF1F4B;" vertex="1" parent="1">
          <mxGeometry x="170" y="60" width="510" height="650" as="geometry" />
        </mxCell>
        <mxCell id="XDxX8zZYFT2SKu-S6DxQ-7" value="Regisztráció" style="ellipse;whiteSpace=wrap;html=1;align=center;fillColor=#FFF129;" vertex="1" parent="XDxX8zZYFT2SKu-S6DxQ-1">
          <mxGeometry x="110" y="100" width="100" height="40" as="geometry" />
        </mxCell>
        <mxCell id="XDxX8zZYFT2SKu-S6DxQ-8" value="Bejelentkezés" style="ellipse;whiteSpace=wrap;html=1;align=center;fillColor=#FFF129;" vertex="1" parent="XDxX8zZYFT2SKu-S6DxQ-1">
          <mxGeometry x="330" y="80" width="100" height="40" as="geometry" />
        </mxCell>
        <mxCell id="XDxX8zZYFT2SKu-S6DxQ-10" value="&amp;lt;&amp;lt;&lt;b&gt;extends&lt;/b&gt;&amp;gt;&amp;gt;" style="endArrow=open;startArrow=none;endFill=0;startFill=0;endSize=8;html=1;verticalAlign=bottom;dashed=1;labelBackgroundColor=none;rounded=0;exitX=1;exitY=0.5;exitDx=0;exitDy=0;entryX=0;entryY=0.5;entryDx=0;entryDy=0;fontColor=#FFFF33;fillColor=#fff2cc;strokeColor=#d6b656;strokeWidth=2;" edge="1" parent="XDxX8zZYFT2SKu-S6DxQ-1" source="XDxX8zZYFT2SKu-S6DxQ-7" target="XDxX8zZYFT2SKu-S6DxQ-8">
          <mxGeometry width="160" relative="1" as="geometry">
            <mxPoint x="120" y="320" as="sourcePoint" />
            <mxPoint x="280" y="320" as="targetPoint" />
          </mxGeometry>
        </mxCell>
        <mxCell id="XDxX8zZYFT2SKu-S6DxQ-3" value="Felhasználó" style="shape=umlActor;verticalLabelPosition=bottom;verticalAlign=top;html=1;outlineConnect=0;" vertex="1" parent="1">
          <mxGeometry x="90" y="130" width="30" height="60" as="geometry" />
        </mxCell>
        <mxCell id="XDxX8zZYFT2SKu-S6DxQ-4" value="Regisztrált&amp;nbsp;&lt;div&gt;felhasználó&lt;/div&gt;" style="shape=umlActor;verticalLabelPosition=bottom;verticalAlign=top;html=1;outlineConnect=0;" vertex="1" parent="1">
          <mxGeometry x="90" y="470" width="30" height="60" as="geometry" />
        </mxCell>
      </root>
    </mxGraphModel>
  </diagram>
</mxfile>
